# xmcd
# 
# Track frame offsets:
#     150
#     21790
#     47820
#     69975
#     95212
#     114075
#     141172
#     157250
#     175820
#     199887
# 
# Disc length: 2960
# 
# Revision: 11
# Processed by: cddbd v1.5.2PL0 Copyright (c) Steve Scherf et al.
# Submitted via: fre:ac v1.0.17
# 
DISCID=8b0b8e0a
DTITLE=Billy Joel - River Of Dreams
DYEAR=1993
DGENRE=Pop
TTITLE0=No Man's Land
TTITLE1=The Great Wall Of China
TTITLE2=Blonde Over Blue
TTITLE3=A Minor Variation
TTITLE4=Shades Of Grey
TTITLE5=All About Soul
TTITLE6=Lullabye(Goodnight,My Angel)
TTITLE7=The River Of Dreams
TTITLE8=Two Thousand Years
TTITLE9=Famous Last Words
EXTD=YEAR: 1993
EXTT0=
EXTT1=
EXTT2=
EXTT3=
EXTT4=
EXTT5=
EXTT6=
EXTT7=
EXTT8=
EXTT9=
PLAYORDER=
